<svg width="120" height="120" viewBox="0 0 120 120" fill="none" xmlns="http://www.w3.org/2000/svg">
<path d="M115.2 0H4.8C2.14903 0 0 2.14904 0 4.8V115.2C0 117.851 2.14903 120 4.8 120H115.2C117.851 120 120 117.851 120 115.2V4.8C120 2.14904 117.851 0 115.2 0Z" fill="#9443FF"/>
<rect x="36" y="22.2025" width="19.1397" height="75.3509" fill="white"/>
<path d="M36 43.395C36 31.6907 45.4882 22.2025 57.1924 22.2025H62.6568C74.3611 22.2025 83.8492 31.6907 83.8492 43.395V43.395C83.8492 55.0993 74.361 64.5874 62.6568 64.5874H57.1924C45.4882 64.5874 36 55.0993 36 43.395V43.395Z" fill="white"/>
<path d="M36.1508 76.9497C36.1508 65.5706 45.3754 56.346 56.7545 56.346H63.3963C74.7754 56.346 84 65.5706 84 76.9497V76.9497C84 88.3289 74.7754 97.5535 63.3963 97.5535H56.7545C45.3754 97.5535 36.1508 88.3289 36.1508 76.9497V76.9497Z" fill="white"/>
<path d="M62.7505 84.6615H57.3297V71.6996L54.4859 72.2201V68.7415C55.053 68.5638 55.675 68.3184 56.3521 68.0052C57.0292 67.6921 57.8248 67.2604 58.7388 66.7103H62.7505V84.6615Z" fill="#9443FF"/>
<path d="M62.7505 84.6615V85.1615H63.2505V84.6615H62.7505ZM57.3297 84.6615H56.8297V85.1615H57.3297V84.6615ZM57.3297 71.6996H57.8297V71.0997L57.2396 71.2077L57.3297 71.6996ZM54.4859 72.2201H53.9859V72.8199L54.5759 72.7119L54.4859 72.2201ZM54.4859 68.7415L54.3364 68.2644L53.9859 68.3743V68.7415H54.4859ZM58.7388 66.7103V66.2103H58.6L58.481 66.2819L58.7388 66.7103ZM62.7505 66.7103H63.2505V66.2103H62.7505V66.7103ZM62.7505 84.1615H57.3297V85.1615H62.7505V84.1615ZM57.8297 84.6615V71.6996H56.8297V84.6615H57.8297ZM57.2396 71.2077L54.3959 71.7282L54.5759 72.7119L57.4197 72.1914L57.2396 71.2077ZM54.9859 72.2201V68.7415H53.9859V72.2201H54.9859ZM54.6354 69.2187C55.2275 69.0331 55.87 68.7791 56.562 68.459L56.1422 67.5514C55.48 67.8577 54.8784 68.0945 54.3364 68.2644L54.6354 69.2187ZM56.562 68.459C57.2608 68.1358 58.0731 67.6946 58.9967 67.1387L58.481 66.2819C57.5765 66.8263 56.7976 67.2483 56.1422 67.5514L56.562 68.459ZM58.7388 67.2103H62.7505V66.2103H58.7388V67.2103ZM62.2505 66.7103V84.6615H63.2505V66.7103H62.2505Z" fill="#9443FF"/>
<path d="M59.5338 31.7061C60.6002 31.7061 61.5524 31.8288 62.3903 32.0742C63.2281 32.3197 63.9602 32.6582 64.5865 33.0898C65.2213 33.513 65.7587 34.0208 66.1989 34.6133C66.639 35.2057 66.9944 35.849 67.2653 36.543C67.5446 37.2285 67.7477 37.9564 67.8746 38.7266C68.0016 39.4883 68.0651 40.2585 68.0651 41.0371C68.0651 41.8073 68.0016 42.5775 67.8746 43.3477C67.7477 44.1178 67.5446 44.8499 67.2653 45.5439C66.986 46.2295 66.6263 46.8685 66.1862 47.4609C65.7461 48.0534 65.2086 48.5654 64.5739 48.9971C63.9391 49.4202 63.2028 49.7546 62.3649 50C61.5354 50.2454 60.5918 50.3682 59.5338 50.3682C58.4759 50.3682 57.528 50.2454 56.6901 50C55.8606 49.7546 55.1285 49.4202 54.4938 48.9971C53.859 48.5654 53.3216 48.0534 52.8815 47.4609C52.4414 46.8685 52.0817 46.2295 51.8024 45.5439C51.5231 44.8499 51.3199 44.1178 51.193 43.3477C51.066 42.5775 51.0026 41.8073 51.0026 41.0371C51.0026 40.2585 51.066 39.4883 51.193 38.7266C51.3199 37.9564 51.5188 37.2285 51.7897 36.543C52.069 35.849 52.4287 35.2057 52.8688 34.6133C53.3089 34.0208 53.8421 33.513 54.4684 33.0898C55.1031 32.6582 55.8395 32.3197 56.6774 32.0742C57.5153 31.8288 58.4674 31.7061 59.5338 31.7061ZM59.5338 35.7686C59.0683 35.7686 58.6578 35.9167 58.3024 36.2129C57.9554 36.5007 57.6634 36.89 57.4264 37.3809C57.1894 37.8717 57.0074 38.4346 56.8805 39.0693C56.762 39.7041 56.7028 40.3643 56.7028 41.0498C56.7028 41.7184 56.762 42.3701 56.8805 43.0049C56.999 43.6396 57.1767 44.2025 57.4137 44.6934C57.6507 45.1758 57.9427 45.5651 58.2897 45.8613C58.6451 46.1576 59.0599 46.3057 59.5338 46.3057C59.9993 46.3057 60.4098 46.1576 60.7653 45.8613C61.1207 45.5651 61.417 45.1758 61.6539 44.6934C61.8909 44.2025 62.0686 43.6396 62.1871 43.0049C62.3056 42.3701 62.3649 41.7184 62.3649 41.0498C62.3649 40.3643 62.3014 39.7041 62.1744 39.0693C62.0559 38.4346 61.8782 37.8717 61.6412 37.3809C61.4043 36.89 61.108 36.5007 60.7526 36.2129C60.4056 35.9167 59.9993 35.7686 59.5338 35.7686Z" fill="#9443FF"/>
<path d="M64.5865 33.0898L64.3028 33.5016L64.3092 33.5059L64.5865 33.0898ZM67.2653 36.543L66.7994 36.7248L66.8022 36.7316L67.2653 36.543ZM67.8746 38.7266L67.3813 38.8079L67.3814 38.8088L67.8746 38.7266ZM67.8746 43.3477L67.3813 43.2663L67.8746 43.3477ZM67.2653 45.5439L67.7283 45.7326L67.7291 45.7306L67.2653 45.5439ZM64.5739 48.9971L64.8512 49.4131L64.855 49.4105L64.5739 48.9971ZM62.3649 50L62.2243 49.5202L62.223 49.5206L62.3649 50ZM56.6901 50L56.5482 50.4795L56.5495 50.4798L56.6901 50ZM54.4938 48.9971L54.2126 49.4106L54.2164 49.4131L54.4938 48.9971ZM52.8815 47.4609L52.4801 47.7591L52.8815 47.4609ZM51.8024 45.5439L51.3385 45.7306L51.3393 45.7326L51.8024 45.5439ZM51.193 38.7266L51.6862 38.8088L51.6863 38.8079L51.193 38.7266ZM51.7897 36.543L51.3258 36.3563L51.3246 36.3593L51.7897 36.543ZM52.8688 34.6133L52.4674 34.3151L52.8688 34.6133ZM54.4684 33.0898L54.7483 33.5041L54.7495 33.5033L54.4684 33.0898ZM58.3024 36.2129L58.6215 36.5978L58.6225 36.597L58.3024 36.2129ZM57.4264 37.3809L57.8767 37.5982L57.4264 37.3809ZM56.8805 39.0693L56.3902 38.9713L56.389 38.9776L56.8805 39.0693ZM57.4137 44.6934L56.9634 44.9107L56.9649 44.9138L57.4137 44.6934ZM58.2897 45.8613L57.965 46.2416L57.9696 46.2454L58.2897 45.8613ZM61.6539 44.6934L62.1027 44.9138L62.1042 44.9107L61.6539 44.6934ZM62.1744 39.0693L61.6829 39.1611L61.6841 39.1674L62.1744 39.0693ZM61.6412 37.3809L61.191 37.5982L61.6412 37.3809ZM60.7526 36.2129L60.4278 36.5933L60.438 36.6015L60.7526 36.2129ZM59.5338 32.2061C60.5628 32.2061 61.4662 32.3246 62.2497 32.5541L62.5308 31.5944C61.6385 31.333 60.6377 31.2061 59.5338 31.2061V32.2061ZM62.2497 32.5541C63.044 32.7867 63.7262 33.1042 64.3028 33.5015L64.8703 32.6781C64.1943 32.2122 63.4123 31.8526 62.5308 31.5944L62.2497 32.5541ZM64.3092 33.5059C64.8978 33.8983 65.3928 34.3667 65.7975 34.9114L66.6002 34.3151C66.1247 33.675 65.5448 33.1278 64.8639 32.6738L64.3092 33.5059ZM65.7975 34.9114C66.2108 35.4678 66.5447 36.0718 66.7995 36.7247L67.731 36.3612C67.4442 35.6261 67.0671 34.9437 66.6002 34.3151L65.7975 34.9114ZM66.8022 36.7316C67.0667 37.3808 67.2601 38.0725 67.3813 38.8079L68.368 38.6452C68.2353 37.8403 68.0224 37.0762 67.7283 36.3543L66.8022 36.7316ZM67.3814 38.8088C67.5038 39.5431 67.5651 40.2858 67.5651 41.0371H68.5651C68.5651 40.2312 68.4993 39.4335 68.3678 38.6444L67.3814 38.8088ZM67.5651 41.0371C67.5651 41.7797 67.5039 42.5227 67.3813 43.2663L68.368 43.429C68.4993 42.6323 68.5651 41.8349 68.5651 41.0371H67.5651ZM67.3813 43.2663C67.26 44.002 67.0665 44.6986 66.8014 45.3573L67.7291 45.7306C68.0226 45.0012 68.2353 44.2337 68.368 43.429L67.3813 43.2663ZM66.8022 45.3553C66.5387 46.002 66.1997 46.6042 65.7848 47.1628L66.5875 47.7591C67.0528 47.1328 67.4332 46.457 67.7283 45.7326L66.8022 45.3553ZM65.7848 47.1628C65.3793 47.7086 64.8831 48.1821 64.2927 48.5836L64.855 49.4105C65.5341 48.9487 66.1128 48.3982 66.5875 47.7591L65.7848 47.1628ZM64.2965 48.581C63.7094 48.9724 63.0205 49.2869 62.2243 49.5202L62.5054 50.4798C63.385 50.2222 64.1688 49.8681 64.8512 49.4131L64.2965 48.581ZM62.223 49.5206C61.4485 49.7497 60.554 49.8682 59.5338 49.8682V50.8682C60.6295 50.8682 61.6223 50.7412 62.5067 50.4794L62.223 49.5206ZM59.5338 49.8682C58.5138 49.8682 57.6144 49.7498 56.8306 49.5202L56.5495 50.4798C57.4415 50.7411 58.438 50.8682 59.5338 50.8682V49.8682ZM56.8319 49.5206C56.0443 49.2875 55.359 48.973 54.7711 48.581L54.2164 49.4131C54.8981 49.8675 55.677 50.2216 56.5482 50.4794L56.8319 49.5206ZM54.7749 48.5836C54.1845 48.1821 53.6883 47.7086 53.2828 47.1628L52.4801 47.7591C52.9549 48.3982 53.5335 48.9487 54.2126 49.4105L54.7749 48.5836ZM53.2828 47.1628C52.8679 46.6042 52.5289 46.002 52.2654 45.3553L51.3393 45.7326C51.6344 46.457 52.0148 47.1328 52.4801 47.7591L53.2828 47.1628ZM52.2662 45.3573C52.0012 44.6986 51.8076 44.002 51.6863 43.2663L50.6997 43.429C50.8323 44.2337 51.045 45.0012 51.3385 45.7306L52.2662 45.3573ZM51.6863 43.2663C51.5638 42.5227 51.5026 41.7797 51.5026 41.0371H50.5026C50.5026 41.8349 50.5683 42.6323 50.6997 43.429L51.6863 43.2663ZM51.5026 41.0371C51.5026 40.2858 51.5638 39.5431 51.6862 38.8088L50.6998 38.6444C50.5683 39.4335 50.5026 40.2312 50.5026 41.0371H51.5026ZM51.6863 38.8079C51.8079 38.0707 51.9977 37.3773 52.2547 36.7267L51.3246 36.3593C51.04 37.0797 50.832 37.8421 50.6997 38.6452L51.6863 38.8079ZM52.2535 36.7296C52.5171 36.0748 52.8559 35.4691 53.2701 34.9114L52.4674 34.3151C52.0014 34.9424 51.6209 35.6232 51.3258 36.3563L52.2535 36.7296ZM53.2701 34.9114C53.6758 34.3654 54.1676 33.8965 54.7483 33.5041L54.1885 32.6755C53.5166 33.1295 52.942 33.6763 52.4674 34.3151L53.2701 34.9114ZM54.7495 33.5033C55.3357 33.1047 56.0233 32.7868 56.8179 32.5541L56.5368 31.5944C55.6556 31.8525 54.8706 32.2117 54.1872 32.6764L54.7495 33.5033ZM56.8179 32.5541C57.6014 32.3246 58.5049 32.2061 59.5338 32.2061V31.2061C58.4299 31.2061 57.4291 31.333 56.5368 31.5944L56.8179 32.5541ZM59.5338 35.2686C58.9521 35.2686 58.4282 35.4572 57.9823 35.8288L58.6225 36.597C58.8875 36.3761 59.1845 36.2686 59.5338 36.2686V35.2686ZM57.9832 35.828C57.5707 36.1701 57.2379 36.6213 56.9761 37.1635L57.8767 37.5982C58.0889 37.1587 58.3401 36.8312 58.6215 36.5978L57.9832 35.828ZM56.9761 37.1635C56.7178 37.6986 56.5239 38.3027 56.3902 38.9713L57.3708 39.1674C57.491 38.5665 57.661 38.0449 57.8767 37.5982L56.9761 37.1635ZM56.389 38.9776C56.2645 39.6444 56.2028 40.3354 56.2028 41.0498H57.2028C57.2028 40.3932 57.2595 39.7638 57.372 39.1611L56.389 38.9776ZM56.2028 41.0498C56.2028 41.7481 56.2646 42.4306 56.389 43.0966L57.372 42.9131C57.2594 42.3097 57.2028 41.6887 57.2028 41.0498H56.2028ZM56.389 43.0966C56.5141 43.7671 56.704 44.3734 56.9634 44.9107L57.864 44.476C57.6494 44.0315 57.4838 43.5122 57.372 42.9131L56.389 43.0966ZM56.9649 44.9138C57.2267 45.4467 57.5578 45.894 57.965 46.2416L58.6143 45.481C58.3275 45.2362 58.0747 44.9049 57.8625 44.4729L56.9649 44.9138ZM57.9696 46.2454C58.4173 46.6185 58.946 46.8057 59.5338 46.8057V45.8057C59.1737 45.8057 58.873 45.6966 58.6098 45.4772L57.9696 46.2454ZM59.5338 46.8057C60.1155 46.8057 60.6394 46.617 61.0854 46.2454L60.4452 45.4772C60.1801 45.6981 59.8831 45.8057 59.5338 45.8057V46.8057ZM61.0854 46.2454C61.5027 45.8976 61.8398 45.4491 62.1027 44.9138L61.2052 44.4729C60.9942 44.9024 60.7387 45.2326 60.4452 45.4772L61.0854 46.2454ZM62.1042 44.9107C62.3636 44.3734 62.5535 43.7671 62.6786 43.0966L61.6956 42.9131C61.5838 43.5122 61.4182 44.0315 61.2037 44.476L62.1042 44.9107ZM62.6786 43.0966C62.803 42.4306 62.8649 41.7481 62.8649 41.0498H61.8649C61.8649 41.6887 61.8083 42.3097 61.6956 42.9131L62.6786 43.0966ZM62.8649 41.0498C62.8649 40.3333 62.7985 39.6402 62.6647 38.9713L61.6841 39.1674C61.8043 39.768 61.8649 40.3953 61.8649 41.0498H62.8649ZM62.6659 38.9776C62.5408 38.3071 62.3509 37.7008 62.0915 37.1635L61.191 37.5982C61.4055 38.0427 61.5711 38.5621 61.6829 39.1611L62.6659 38.9776ZM62.0915 37.1635C61.8286 36.6188 61.4899 36.1665 61.0672 35.8243L60.438 36.6015C60.7262 36.8348 60.98 37.1612 61.191 37.5982L62.0915 37.1635ZM61.0772 35.8326C60.6377 35.4574 60.1157 35.2686 59.5338 35.2686V36.2686C59.8829 36.2686 60.1734 36.3759 60.4279 36.5932L61.0772 35.8326Z" fill="#9443FF"/>
</svg>
